Coordinates
version=1
nRows=4
nColumns=63
inDegrees=yes

Units are S.I. units (second, meters, Newtons, ...)
If the header above contains a line with 'inDegrees', this indicates whether rotational values are in degrees (yes) or radians (no).

endheader
time	pelvis_tilt	pelvis_list	pelvis_rotation	pelvis_tx	pelvis_ty	pelvis_tz	hip_flexion_r	hip_adduction_r	hip_rotation_r	knee_angle_r	knee_angle_r_beta	ankle_angle_r	subtalar_angle_r	mtp_angle_r	hip_flexion_l	hip_adduction_l	hip_rotation_l	knee_angle_l	knee_angle_l_beta	ankle_angle_l	subtalar_angle_l	mtp_angle_l	L5_S1_Flex_Ext	L5_S1_Lat_Bending	L5_S1_axial_rotation	L4_L5_Flex_Ext	L4_L5_Lat_Bending	L4_L5_axial_rotation	L3_L4_Flex_Ext	L3_L4_Lat_Bending	L3_L4_axial_rotation	L2_L3_Flex_Ext	L2_L3_Lat_Bending	L2_L3_axial_rotation	L1_L2_Flex_Ext	L1_L2_Lat_Bending	L1_L2_axial_rotation	L1_T12_Flex_Ext	L1_T12_Lat_Bending	L1_T12_axial_rotation	Abs_r3	Abs_r2	Abs_r1	Abs_t1	Abs_t2	neck_flexion	neck_bending	neck_rotation	arm_flex_r	arm_add_r	arm_rot_r	elbow_flex_r	pro_sup_r	wrist_flex_r	wrist_dev_r	arm_flex_l	arm_add_l	arm_rot_l	elbow_flex_l	pro_sup_l	wrist_flex_l	wrist_dev_l
      0.00000000	      0.88455608	     -3.74318651	     91.51697230	      0.19329562	      0.72877754	      0.93756487	      9.54053581	      2.20364431	      9.37759982	     15.61446381	      0.27252380	     41.91818344	      0.41984238	      0.00000000	      7.25327289	      0.76738263	      5.99978787	     12.39612501	      0.21635320	     41.27606125	     -7.82218822	      0.00000000	      0.09329387	      0.01060221	      1.88107160	      0.17325604	      0.01410094	      1.99863857	      0.15327250	      0.02577822	      1.99863857	      0.10662556	      0.02577822	      1.64593765	      0.08663269	      0.02162003	      1.52837067	      0.05330812	      0.01642283	      1.41080370	      0.66638877	      0.11993436	     10.46195590	      0.00000000	      0.00000000	     16.01817033	      5.09993558	     -9.31118927	      6.43148727	     -7.62029934	     38.83331369	     46.23413708	     44.22681704	      2.55865024	     19.30278887	     26.31322338	     -1.73918317	     84.30042360	     41.60343668	     39.10727117	      4.90761387	     26.90919479
      0.02127660	      0.91571713	     -3.44393564	     91.63735830	      0.19281305	      0.72984499	      0.93805153	      9.54371178	      2.21952706	      9.47664602	     16.01570803	      0.27952684	     42.05974849	      0.27602892	      0.00000000	      7.07464485	      0.72262634	      6.06428926	     12.18250031	      0.21262474	     41.49781058	     -7.95310873	      0.00000000	      0.06181013	      0.02337899	      1.82685909	      0.11478759	      0.03109406	      1.94103778	      0.10154786	      0.05684368	      1.94103778	      0.07064279	      0.05684368	      1.59850170	      0.05739688	      0.04767444	      1.48432301	      0.03531831	      0.03621406	      1.37014432	      0.44150356	      0.26446782	     10.16044220	      0.00000000	      0.00000000	     15.65632404	      5.87436394	     -9.33142264	      6.74653566	     -7.65262109	     39.22373381	     45.91948618	     44.39786255	      2.30983522	     19.30837202	     26.64923095	     -1.55055514	     83.60312168	     41.06603124	     39.07212651	      4.66267245	     26.56379607
      0.04255319	      0.84878228	     -3.28665410	     91.79925582	      0.19228521	      0.73058463	      0.93848165	      9.63168134	      2.15329180	      9.69300092	     16.34546146	      0.28528212	     42.18185273	     -0.10358684	      0.00000000	      6.91654855	      0.80553404	      6.38424111	     11.81064525	      0.20613465	     41.54526001	     -8.16286704	      0.00000000	      0.04102542	      0.02298363	      1.72035930	      0.07618831	      0.03056823	      1.82788176	      0.06740067	      0.05588240	      1.82788176	      0.04688795	      0.05588240	      1.50531439	      0.03809621	      0.04686822	      1.39779193	      0.02344193	      0.03560164	      1.29026947	      0.29304049	      0.25999541	      9.56812232	      0.00000000	      0.00000000	     15.70332966	      6.57922674	     -8.75119801	      7.38283926	     -7.71135444	     40.49733717	     45.61296661	     44.82729234	      1.85974887	     19.34604036	     26.52713778	     -1.56655110	     82.44550335	     40.68656889	     39.07001512	      4.23369291	     25.76303967
      0.06382979	      0.90966540	     -3.20094402	     92.09803002	      0.19183938	      0.73108337	      0.93842537	      9.49404995	      2.30063285	     10.55488509	     16.18946634	      0.28255949	     41.92481451	     -1.43005538	      0.00000000	      6.87425905	      0.89950906	      8.13737103	     11.65354205	      0.20339268	     41.31112296	    -10.05342641	      0.00000000	      0.03666049	      0.04361897	      1.50285631	      0.06808219	      0.05801323	      1.59678482	      0.06022952	      0.10605516	      1.59678482	      0.04189927	      0.10605516	      1.31499927	      0.03404293	      0.08894780	      1.22107075	      0.02094780	      0.06756578	      1.12714223	      0.26186220	      0.49342648	      8.35843591	      0.00000000	      0.00000000	     15.40717702	      6.80010371	     -7.01693454	      8.42605925	     -8.01447280	     43.53606024	     45.27584156	     44.84983593	      1.60669076	     18.18956097	     25.69347622	     -2.17471097	     79.81284712	     41.35437149	     40.37335086	      2.94338308	     25.71428045
